<svg width="16" height="16" viewBox="0 0 16 16" fill="none" xmlns="http://www.w3.org/2000/svg">
<g clip-path="url(#clip0_289_24261)">
<path d="M10.3998 7.19335C11.0465 6.74669 11.4998 6.01335 11.4998 5.33335C11.4998 3.82669 10.3332 2.66669 8.83317 2.66669H4.6665V12H9.35984C10.7532 12 11.8332 10.8667 11.8332 9.47335C11.8332 8.46002 11.2598 7.59335 10.3998 7.19335ZM6.6665 4.33335H8.6665C9.21984 4.33335 9.6665 4.78002 9.6665 5.33335C9.6665 5.88669 9.21984 6.33335 8.6665 6.33335H6.6665V4.33335ZM8.99984 10.3334H6.6665V8.33335H8.99984C9.55317 8.33335 9.99984 8.78002 9.99984 9.33335C9.99984 9.88669 9.55317 10.3334 8.99984 10.3334Z" fill="white"/>
</g>
<defs>
<clipPath id="clip0_289_24261">
<rect width="16" height="16" fill="white"/>
</clipPath>
</defs>
</svg>
