<svg width="339" height="278" viewBox="0 0 339 278" fill="none" xmlns="http://www.w3.org/2000/svg">
<path d="M75.4433 246.504C88.8499 246.504 99.7182 245.362 99.7182 243.954C99.7182 242.546 88.8499 241.404 75.4433 241.404C62.0367 241.404 51.1685 242.546 51.1685 243.954C51.1685 245.362 62.0367 246.504 75.4433 246.504Z" fill="#EDE0D5"/>
<path d="M86.533 92.3502C86.533 92.3502 88.0806 57.9262 113.233 50.8428C138.386 43.7577 152.237 79.2076 175.216 75.5814C198.194 71.957 211.603 32.968 257.029 51.6004C302.456 70.231 270.319 124.585 287.655 134.408C287.655 134.408 323.953 154.035 305.844 193.332C287.735 232.63 207.879 234.122 200.087 168.81C192.295 103.497 86.5312 178.18 86.5312 92.352L86.533 92.3502Z" fill="#FCEFE3"/>
<path d="M245.057 233.075C245.057 234.568 206.772 235.778 159.545 235.778C112.318 235.778 74.0322 234.568 74.0322 233.075C74.0322 231.583 112.318 230.372 159.545 230.372C206.772 230.372 245.057 231.583 245.057 233.075Z" fill="#EDE0D5"/>
<path d="M87.3743 60.4725C91.3419 66.9149 89.0946 72.4064 101.87 82.6178C106.732 86.5052 110.499 94.1651 113.303 102.163L105.546 125.984C93.6781 118.623 79.9276 103.187 80.2748 95.1282C80.6238 87.0295 76.8778 81.5119 69.8708 74.9214C57.1236 62.9352 63.7781 41.8541 63.7781 41.8541C63.7781 41.8541 80.9099 49.9702 87.376 60.469L87.3743 60.4725Z" fill="#F57056"/>
<path d="M73.5157 57.1982C73.7146 57.0588 73.9868 57.1076 74.1264 57.3044C87.3674 76.1493 99.0241 93.3552 109.496 113.855L109.112 115.036C98.5583 94.233 86.7951 76.8599 73.4093 57.8077C73.2697 57.6092 73.3186 57.3375 73.5157 57.1982Z" fill="#1F1406"/>
<path d="M95.1978 103.997C98.8252 107.405 103.311 113.738 107.422 120.227L100.825 140.485C82.1854 133.142 64.9821 105.352 64.9821 105.352C46.5853 115.474 37.2334 100.219 37.2334 100.219C73.4546 77.7411 95.1978 103.997 95.1978 103.997Z" fill="#F57056"/>
<path d="M58.3571 97.516C58.4845 97.5317 71.3067 99.2316 84.3017 106.524C91.9455 110.814 98.1603 116.169 102.77 122.445C103.716 123.732 104.593 125.059 105.403 126.424L105.021 127.596C99.4096 117.81 91.1656 111.385 83.8952 107.301C71.0467 100.085 58.3711 98.4008 58.2437 98.3851C58.0029 98.3555 57.8337 98.1343 57.8651 97.8957C57.8965 97.6554 58.1146 97.4864 58.3554 97.5178L58.3571 97.516Z" fill="#1F1406"/>
<path d="M181.678 185.065H156.964V229.444H181.678V185.065Z" fill="#704D32"/>
<path d="M150.044 218.1H189.305C195.05 218.1 199.714 222.756 199.714 228.491V232.795H139.635V228.491C139.635 222.756 144.299 218.1 150.044 218.1Z" fill="#704D32"/>
<path d="M246.425 88.6388H87.2417C83.764 88.6388 80.9448 91.453 80.9448 94.9245V200.36C80.9448 203.831 83.764 206.646 87.2417 206.646H246.425C249.903 206.646 252.722 203.831 252.722 200.36V94.9245C252.722 91.453 249.903 88.6388 246.425 88.6388Z" fill="#36261B"/>
<path d="M242.208 88.6388H83.8376C80.1355 88.6388 77.1343 91.6347 77.1343 95.3303V199.954C77.1343 203.65 80.1355 206.646 83.8376 206.646H242.208C245.91 206.646 248.911 203.65 248.911 199.954V95.3303C248.911 91.6347 245.91 88.6388 242.208 88.6388Z" fill="#7D5638"/>
<path d="M243.748 93.9143H81.3862V198.975H243.748V93.9143Z" fill="#D4C8BE"/>
<path d="M156.964 206.646H181.677V215.566L156.964 206.646Z" fill="#36261B"/>
<path d="M157.459 218.101H179.979" stroke="#36261B" stroke-width="4" stroke-linecap="round" stroke-linejoin="round"/>
<path d="M249.077 73.2442C251.061 73.2442 252.669 71.6386 252.669 69.6581C252.669 67.6775 251.061 66.072 249.077 66.072C247.093 66.072 245.484 67.6775 245.484 69.6581C245.484 71.6386 247.093 73.2442 249.077 73.2442Z" stroke="#1F1406" stroke-width="4.43" stroke-linecap="round" stroke-linejoin="round"/>
<path d="M121.616 223.378C121.779 221.405 120.309 219.672 118.332 219.509C116.355 219.346 114.619 220.813 114.455 222.787C114.292 224.761 115.762 226.493 117.739 226.657C119.717 226.82 121.452 225.352 121.616 223.378Z" stroke="#1F1406" stroke-width="4.43" stroke-linecap="round" stroke-linejoin="round"/>
<path d="M47.9812 143.711C48.2991 141.756 46.9692 139.914 45.0107 139.596C43.0523 139.279 41.207 140.606 40.8891 142.561C40.5712 144.516 41.9011 146.358 43.8595 146.676C45.8179 146.993 47.6633 145.665 47.9812 143.711Z" stroke="#1F1406" stroke-width="4.43" stroke-linecap="round" stroke-linejoin="round"/>
<path d="M165.485 118.797H93.793V133.144H165.485V118.797Z" fill="#F2ECE6"/>
<path d="M165.485 137.9H93.793V152.246H165.485V137.9Z" fill="#F57056"/>
<path d="M165.485 155.876H93.793V170.222H165.485V155.876Z" fill="#F2ECE6"/>
<path d="M165.485 173.85H93.793V188.196H165.485V173.85Z" fill="#F2ECE6"/>
<path d="M166.284 104.8H92.4199V112.259H166.284V104.8Z" fill="#7DB3A2"/>
<path d="M235.087 104.8H174.772V112.259H235.087V104.8Z" fill="#7DB3A2"/>
<path d="M235.549 143.581H174.605V151.041H235.549V143.581Z" fill="#7DB3A2"/>
<path d="M201.703 125.433H174.605V132.893H201.703V125.433Z" fill="#F2ECE6"/>
<path d="M233.002 125.433H205.876V132.893H233.002V125.433Z" fill="#F2ECE6"/>
<path d="M104.737 129.112C106.421 127.431 106.421 124.706 104.737 123.026C103.054 121.345 100.324 121.345 98.6404 123.026C96.9567 124.706 96.9567 127.431 98.6404 129.112C100.324 130.793 103.054 130.793 104.737 129.112Z" fill="white"/>
<path d="M105.673 146.317C106.584 144.121 105.539 141.604 103.339 140.694C101.14 139.785 98.6177 140.827 97.7065 143.023C96.7953 145.219 97.8399 147.737 100.04 148.646C102.24 149.556 104.762 148.513 105.673 146.317Z" fill="white"/>
<path d="M101.69 167.667C104.071 167.667 106.001 165.74 106.001 163.363C106.001 160.987 104.071 159.06 101.69 159.06C99.3087 159.06 97.3784 160.987 97.3784 163.363C97.3784 165.74 99.3087 167.667 101.69 167.667Z" fill="white"/>
<path d="M105.672 182.684C106.583 180.488 105.539 177.971 103.339 177.061C101.139 176.151 98.6172 177.194 97.706 179.39C96.7948 181.586 97.8395 184.104 100.039 185.013C102.239 185.923 104.761 184.88 105.672 182.684Z" fill="white"/>
<path d="M237.436 158.598H173.284V187.865H237.436V158.598Z" fill="#F2ECE6"/>
<path d="M237.436 158.598H173.284V164.043H237.436V158.598Z" fill="#F57056"/>
<path d="M97.6945 143.162C98.5547 144.466 99.4131 145.772 100.273 147.077C100.397 147.265 100.519 147.451 100.643 147.64C100.924 148.066 101.486 148.049 101.77 147.64C102.341 146.817 102.911 145.994 103.482 145.172C104.387 143.867 105.293 142.561 106.198 141.256C106.408 140.953 106.619 140.65 106.828 140.349C107.029 140.06 106.882 139.626 106.595 139.457C106.27 139.267 105.904 139.401 105.701 139.691C105.131 140.513 104.56 141.336 103.99 142.158C103.084 143.463 102.179 144.769 101.273 146.074C101.064 146.377 100.853 146.68 100.643 146.981H101.77C100.91 145.677 100.052 144.37 99.1915 143.066L98.8216 142.503C98.628 142.209 98.2441 142.085 97.9283 142.27C97.6352 142.441 97.4991 142.866 97.6945 143.162Z" fill="#3B1E18"/>
<path d="M109.677 126.069H158.459" stroke="#3B1E18" stroke-width="4.45" stroke-linecap="round" stroke-linejoin="round"/>
<path d="M109.677 144.672H158.459" stroke="#3B1E18" stroke-width="4.45" stroke-linecap="round" stroke-linejoin="round"/>
<path d="M109.677 163.048H158.459" stroke="#3B1E18" stroke-width="4.45" stroke-linecap="round" stroke-linejoin="round"/>
<path d="M109.677 182.055H158.459" stroke="#3B1E18" stroke-width="4.45" stroke-linecap="round" stroke-linejoin="round"/>
<path d="M181.699 169.794L182.582 171.581C182.701 171.819 182.929 171.986 183.195 172.025L185.171 172.312C185.838 172.408 186.103 173.226 185.622 173.695L184.191 175.087C183.999 175.273 183.912 175.541 183.957 175.804L184.294 177.769C184.407 178.431 183.711 178.936 183.114 178.624L181.347 177.696C181.11 177.572 180.827 177.572 180.591 177.696L178.824 178.624C178.227 178.937 177.531 178.432 177.645 177.769L177.981 175.804C178.027 175.541 177.939 175.273 177.748 175.087L176.317 173.695C175.835 173.226 176.1 172.408 176.767 172.312L178.744 172.025C179.009 171.986 179.238 171.821 179.356 171.581L180.239 169.794C180.537 169.191 181.398 169.191 181.696 169.794H181.699Z" fill="#FFAC66"/>
<path d="M193.675 169.794L194.558 171.581C194.677 171.819 194.906 171.986 195.171 172.025L197.148 172.312C197.814 172.408 198.079 173.226 197.598 173.695L196.167 175.087C195.975 175.273 195.888 175.541 195.933 175.804L196.27 177.769C196.383 178.431 195.687 178.936 195.09 178.624L193.323 177.696C193.086 177.572 192.803 177.572 192.568 177.696L190.8 178.624C190.203 178.937 189.507 178.432 189.621 177.769L189.957 175.804C190.003 175.541 189.916 175.273 189.724 175.087L188.293 173.695C187.811 173.226 188.077 172.408 188.743 172.312L190.72 172.025C190.985 171.986 191.214 171.821 191.332 171.581L192.215 169.794C192.513 169.191 193.374 169.191 193.672 169.794H193.675Z" fill="#FFAC66"/>
<path d="M205.652 169.794L206.534 171.581C206.653 171.819 206.882 171.986 207.147 172.025L209.124 172.312C209.79 172.408 210.055 173.226 209.574 173.695L208.143 175.087C207.951 175.273 207.864 175.541 207.909 175.804L208.246 177.769C208.359 178.431 207.663 178.936 207.067 178.624L205.299 177.696C205.062 177.572 204.779 177.572 204.544 177.696L202.776 178.624C202.179 178.937 201.483 178.432 201.597 177.769L201.933 175.804C201.979 175.541 201.892 175.273 201.7 175.087L200.269 173.695C199.787 173.226 200.053 172.408 200.719 172.312L202.696 172.025C202.961 171.986 203.19 171.821 203.308 171.581L204.191 169.794C204.49 169.191 205.35 169.191 205.648 169.794H205.652Z" fill="#FFAC66"/>
<path d="M217.628 169.794L218.51 171.581C218.629 171.819 218.858 171.986 219.123 172.025L221.1 172.312C221.766 172.408 222.031 173.226 221.55 173.695L220.119 175.087C219.927 175.273 219.84 175.541 219.885 175.804L220.222 177.769C220.335 178.431 219.639 178.936 219.043 178.624L217.275 177.696C217.038 177.572 216.755 177.572 216.52 177.696L214.752 178.624C214.156 178.937 213.459 178.432 213.573 177.769L213.91 175.804C213.955 175.541 213.868 175.273 213.676 175.087L212.245 173.695C211.763 173.226 212.029 172.408 212.695 172.312L214.672 172.025C214.937 171.986 215.166 171.821 215.284 171.581L216.167 169.794C216.466 169.191 217.326 169.191 217.624 169.794H217.628Z" fill="#FFAC66"/>
<path d="M229.604 169.794L230.487 171.581C230.605 171.819 230.834 171.986 231.099 172.025L233.076 172.312C233.742 172.408 234.007 173.226 233.526 173.695L232.095 175.087C231.903 175.273 231.816 175.541 231.861 175.804L232.198 177.769C232.312 178.431 231.615 178.936 231.019 178.624L229.251 177.696C229.014 177.572 228.731 177.572 228.496 177.696L226.728 178.624C226.132 178.937 225.435 178.432 225.549 177.769L225.886 175.804C225.931 175.541 225.844 175.273 225.652 175.087L224.221 173.695C223.74 173.226 224.005 172.408 224.671 172.312L226.648 172.025C226.913 171.986 227.142 171.821 227.26 171.581L228.143 169.794C228.442 169.191 229.302 169.191 229.6 169.794H229.604Z" fill="#D4CEC9"/>
<path d="M231.263 177.195L229.298 178.339L232.857 184.426L234.822 183.281L231.263 177.195Z" fill="#5C372F"/>
<path d="M228.618 180.959C228.633 179.408 228.605 176.398 228.593 175.243C228.592 175.038 228.82 174.912 229.002 175.02L233.887 177.894C234.206 178.082 234.166 178.544 233.819 178.666L232.453 179.148L230.493 180.369L229.338 181.304C229.052 181.536 228.612 181.329 228.616 180.961L228.618 180.959Z" fill="#5C372F"/>
<path d="M261.315 245.006C290.499 245.006 314.158 243.33 314.158 241.263C314.158 239.196 290.499 237.52 261.315 237.52C232.13 237.52 208.471 239.196 208.471 241.263C208.471 243.33 232.13 245.006 261.315 245.006Z" fill="#EDE0D5"/>
<path d="M294.219 160.059C294.95 160.267 305.01 163.043 308.519 174.329C312.026 185.617 307.172 218.778 305.38 222.908C303.588 227.035 298.619 237.874 285.129 242.402L234.574 242.158C232.767 241.343 230.957 238.589 230.069 237.424C222.351 227.302 222.998 210.636 231.638 204.986C240.278 199.334 262.232 192.902 264.717 178.739C267.2 164.576 277.335 155.28 294.222 160.061L294.219 160.059Z" fill="#B0D6C9"/>
<path d="M271.387 234.415C284.878 229.886 292.581 222.908 297.745 212.571C299.687 208.683 309.217 177.504 309.217 177.504C311.25 190.843 307.024 219.105 305.379 222.897C303.587 227.025 298.618 237.863 285.127 242.392L234.573 242.148C232.765 241.333 230.956 238.579 230.068 237.414C227.691 234.298 226.111 230.562 225.308 226.718C242.422 236.426 267.807 236.25 271.387 234.415Z" fill="#9DBFB4"/>
<path fill-rule="evenodd" clip-rule="evenodd" d="M280.08 153.04C280.291 152.426 279.774 151.807 279.131 151.907C277.543 152.152 275.119 153.222 275.057 157.454C274.978 162.783 274.247 166.453 274.247 166.453L281.439 164.428L279.211 155.571L280.08 153.039V153.04Z" fill="#36261B"/>
<path d="M248.787 207.13L248.365 235.855C248.365 235.855 251.694 235.914 252.401 235.38C253.107 234.845 257.808 209.185 257.808 209.185L248.787 207.132V207.13Z" fill="#CC5844"/>
<path fill-rule="evenodd" clip-rule="evenodd" d="M252.399 235.378L253.165 239.784C253.324 241.146 252.509 242.127 251.228 242.116L242.876 242.045C242.492 242.041 242.074 241.803 241.795 241.43L241.658 241.247C241.261 240.713 241.266 240.065 241.672 239.79L244.94 238.637L248.737 235.209C250.032 235.092 250.871 233.836 252.399 235.378Z" fill="#DEB8AB"/>
<path d="M264.993 212.947C264.993 212.947 258.188 225.703 254.587 227.701C250.984 229.698 244.847 237.423 244.847 237.423L241.379 234.493L256.455 208.389L264.994 212.945L264.993 212.947Z" fill="#E3633D"/>
<path d="M289.742 193.341C289.742 193.341 292.211 199.581 285.607 204.986C279.003 210.388 264.175 215.991 264.175 215.991C264.175 215.991 253.957 214.593 248.995 214.462C247.727 214.429 246.835 213.199 247.195 211.986C248.238 208.459 250.365 202.565 253.184 201.522C258.453 199.573 261.589 198.355 261.589 198.355L266.792 195.016L271.928 189.476L289.739 193.339L289.742 193.341Z" fill="#A39A92"/>
<path d="M289.742 193.341C289.742 193.341 292.211 199.581 285.607 204.986C279.003 210.388 264.174 215.991 264.174 215.991C264.174 215.991 261.271 215.594 257.808 215.202C276.712 207.694 286.034 200.654 266.795 195.018L271.931 189.478L289.742 193.341Z" fill="#878079"/>
<path fill-rule="evenodd" clip-rule="evenodd" d="M245.544 235.181L244.991 239.671C244.733 241.059 243.52 242.064 242.105 242.061L232.886 242.043C232.462 242.043 232.074 241.803 231.886 241.423L231.794 241.237C231.523 240.693 231.736 240.035 232.273 239.751L236.257 238.553L241.548 235.031C243.018 234.904 244.345 233.619 245.547 235.179L245.544 235.181Z" fill="white"/>
<path d="M269.121 176.945L268.072 185.242L263.932 197.746C263.932 197.746 261.843 201.842 267.002 197.181C267.187 197.014 273.181 186.467 273.181 186.467C273.181 186.467 272.727 182.194 272.573 177.835C272.42 173.475 269.124 176.945 269.124 176.945H269.121Z" fill="#E3633D"/>
<path d="M284.38 162.613C284.38 162.613 286.464 165.626 289.485 166.779C292.507 167.932 293.704 170.36 293.49 175.691C293.38 178.424 288.221 183.156 288.221 183.156C288.221 183.156 288.271 186.745 288.313 187.362C288.357 187.978 291.694 192.702 290.803 193.32C289.909 193.94 270.867 194.572 270.274 191.826L272.359 182.959C272.359 182.959 269.616 179.124 271.164 175.424C272.711 171.725 274.657 166.077 274.657 166.077C274.657 166.077 278.856 164.917 279.46 164.008C280.066 163.099 284.379 162.613 284.379 162.613H284.38Z" fill="white"/>
<path d="M288.223 183.157C288.223 183.157 288.273 186.747 288.315 187.364C288.359 187.98 291.696 192.703 290.805 193.322C289.911 193.942 270.869 194.574 270.276 191.827C278.494 191.611 285.358 189.774 288.223 183.157Z" fill="#EDEDED"/>
<path d="M274.657 166.077C273.581 166.432 270.745 166.974 269.433 173.946L267.874 179.038C267.874 179.038 270.801 181.257 272.166 179.955C273.528 178.652 274.657 166.077 274.657 166.077Z" fill="white"/>
<path d="M278.126 200.529L270.543 205.757L255.819 198.526L264.325 194.381L278.218 199.705L278.126 200.529Z" fill="#36261B"/>
<path d="M297.101 189.966C297.101 189.966 276.698 206.191 273.177 213.558C269.655 220.926 270.836 220.018 270.836 220.018C270.836 220.018 279.649 220.732 280.722 220.018C281.795 219.304 297.103 189.966 297.103 189.966H297.101Z" fill="#B0D6C9"/>
<path d="M294.486 173.946C294.486 173.946 292.563 189.48 291.898 191.103C291.417 192.282 281.749 196.462 277.338 197.22L275.454 195.65L288.065 187.625L287.948 179.005L294.486 173.946Z" fill="#E3633D"/>
<path d="M291.537 168.021C291.537 168.021 294.615 170.401 294.844 177.957L295.037 181.815C295.037 181.815 289.484 183.204 287.224 181.734C284.965 180.264 286.635 176.717 286.635 176.717L291.537 168.021Z" fill="white"/>
<path fill-rule="evenodd" clip-rule="evenodd" d="M279.202 160.723C279.202 160.723 279.577 163.55 279.886 165.892C279.968 166.516 280.381 167.047 280.966 167.28C281.55 167.514 282.217 167.416 282.709 167.023C282.869 166.894 283.026 166.768 283.175 166.648C283.848 166.108 284.15 165.229 283.948 164.389C283.431 162.238 282.489 158.321 282.489 158.321L279.2 160.721L279.202 160.723Z" fill="#E3633D"/>
<path fill-rule="evenodd" clip-rule="evenodd" d="M279.366 162.075C279.366 162.075 280.443 162.303 281.971 161.226C281.971 161.226 281.245 163.499 279.569 163.473L279.366 162.075Z" fill="#A12A2A"/>
<path fill-rule="evenodd" clip-rule="evenodd" d="M283.04 155.702C282.993 154.733 282.17 153.984 281.2 154.032C280.163 154.08 279.361 153.876 278.326 153.925C277.356 153.972 276.525 155.111 276.421 156.074C276.297 157.212 276.313 159.504 276.728 161.172C276.962 162.113 277.757 162.954 278.727 162.907C279.764 162.858 282.821 161.724 283.032 159.861C283.192 158.443 283.11 157.125 283.042 155.7L283.04 155.702Z" fill="#E3633D"/>
<path d="M272.127 199.595C272.127 199.595 271.548 201.149 270.948 201.048C270.347 200.947 270.836 199.93 270.836 199.93L272.127 199.247V199.595Z" fill="#E3633D"/>
<path d="M278.218 199.705L270.719 204.684L255.405 198.052L263.911 193.907L278.218 199.705Z" fill="#36261B"/>
<path d="M255.215 199.399L269.814 205.149C270.065 205.242 270.921 204.624 270.834 204.371L266.996 192.697C266.964 192.606 266.895 192.535 266.804 192.501L251.302 186.839C251.176 186.794 251.052 186.831 250.97 186.911C250.888 186.991 250.38 187.539 250.424 187.665L255.023 199.202C255.055 199.292 255.124 199.364 255.215 199.397V199.399Z" fill="white"/>
<path d="M254.639 199.799L269.472 205.216C269.943 205.388 270.402 204.937 270.238 204.465L266.34 193.177C266.282 193.008 266.15 192.874 265.982 192.813L251.15 187.397C250.679 187.224 250.22 187.675 250.384 188.147L254.282 199.435C254.339 199.604 254.472 199.738 254.639 199.799Z" fill="#36261B"/>
<path d="M272.82 196.506L276.74 194.83L277.338 197.218L275.037 198.613L274.62 199.601C274.289 200.386 273.498 200.898 272.645 200.844C272.275 200.82 271.886 200.745 271.548 200.576C271.087 200.346 270.907 199.782 271.132 199.32L272.237 197.058C272.357 196.81 272.565 196.614 272.818 196.506H272.82Z" fill="#E3633D"/>
<path fill-rule="evenodd" clip-rule="evenodd" d="M257.653 195.093C257.41 195.832 258.073 196.842 259.132 197.352C260.193 197.862 261.249 197.678 261.491 196.939C261.734 196.201 261.071 195.191 260.011 194.68C258.951 194.17 257.895 194.355 257.653 195.093Z" fill="white"/>
<path d="M285.527 156.095C287.336 156.095 288.803 154.738 288.803 153.063C288.803 151.388 287.336 150.031 285.527 150.031C283.717 150.031 282.25 151.388 282.25 153.063C282.25 154.738 283.717 156.095 285.527 156.095Z" fill="#36261B"/>
<path d="M286.715 165.945C286.715 165.945 279.499 172.464 278.218 175.215C278.218 175.215 277.752 169.24 279.825 165.417C281.898 161.594 286.715 165.945 286.715 165.945Z" fill="#E3633D"/>
<path d="M283.164 159.427C283.164 159.427 283.297 162.616 283.03 165.159C282.905 166.347 284.1 167.235 285.201 166.767L287.575 165.756C287.575 165.756 289.652 164.725 287.434 162.614C286.391 161.622 286.214 160.112 286.2 159.304C286.171 157.672 285.427 152.342 281.273 151.898C279.195 151.677 276.828 153.399 277.016 154.592C277.241 156.007 278.918 157.461 281.022 158.63L283.166 159.431L283.164 159.427Z" fill="#36261B"/>
<path fill-rule="evenodd" clip-rule="evenodd" d="M284.71 160.389C284.356 161.207 283.519 161.632 282.84 161.34C282.161 161.047 281.899 160.147 282.254 159.328C282.608 158.509 283.445 158.084 284.124 158.377C284.803 158.67 285.064 159.57 284.71 160.389Z" fill="#E3633D"/>
<path d="M270.965 179.535C270.965 179.535 270.456 178.199 274.249 171.896" stroke="#D4CEC9" stroke-width="4" stroke-linecap="round" stroke-linejoin="round"/>
<path d="M287.994 182.41L287.765 175.046L288.182 174.404" stroke="#D4CEC9" stroke-width="4" stroke-linecap="round" stroke-linejoin="round"/>
<path fill-rule="evenodd" clip-rule="evenodd" d="M279.202 160.571L277.513 160.659C277.513 160.659 277.606 161.808 278.413 161.67C279.221 161.533 279.202 160.571 279.202 160.571Z" fill="white"/>
<path d="M73.6499 211.862C71.5038 212.238 69.6387 211.975 67.1559 211.862L57.6539 175.323C57.2544 173.785 58.1948 172.235 59.7563 171.861C61.3039 171.49 62.883 172.413 63.2982 173.934L73.6499 211.86V211.862Z" fill="#7DB3A2"/>
<path d="M75.1293 210.265C73.498 210.5 71.9504 209.38 71.6904 207.774L63.4656 156.924C63.2056 155.319 64.3293 153.812 65.9606 153.577C67.592 153.342 69.1396 154.462 69.3996 156.067L77.6243 206.917C77.8843 208.523 76.7607 210.03 75.1293 210.265Z" fill="#7A4940"/>
<path d="M82.6003 209.707C78.7723 211.143 74.8728 211.836 70.9087 211.862L79.8663 171.277L90.2023 173.867L82.6021 209.707H82.6003Z" fill="#F57056"/>
<path d="M78.3467 178.162L81.9932 178.847" stroke="#3A4157" stroke-width="2.5" stroke-linecap="round" stroke-linejoin="round"/>
<path d="M76.6108 185.042L80.2574 185.726" stroke="#3A4157" stroke-width="2.5" stroke-linecap="round" stroke-linejoin="round"/>
<path d="M74.8887 193.189L78.537 193.876" stroke="#3A4157" stroke-width="2.5" stroke-linecap="round" stroke-linejoin="round"/>
<path d="M73.1821 202.53L76.8304 203.214" stroke="#3A4157" stroke-width="2.5" stroke-linecap="round" stroke-linejoin="round"/>
<path d="M71.4443 209.161L75.0926 209.845" stroke="#3A4157" stroke-width="2.5" stroke-linecap="round" stroke-linejoin="round"/>
<path d="M61.5605 190.345C61.5605 190.345 65.3781 191.03 67.3846 188.907" stroke="#3A4157" stroke-width="2.5" stroke-linecap="round" stroke-linejoin="round"/>
<path d="M58.0394 176.806L56.1167 177.412L59.7388 190.45" stroke="#3A4157" stroke-width="2.5" stroke-linecap="round" stroke-linejoin="round"/>
<path d="M60.357 174.418C61.6324 174.144 62.5607 173.432 62.4304 172.828C62.3001 172.225 61.1605 171.958 59.8851 172.232C58.6096 172.506 57.6813 173.218 57.8116 173.822C57.9419 174.426 59.0815 174.692 60.357 174.418Z" stroke="#3A4157" stroke-width="1.98" stroke-linecap="round" stroke-linejoin="round"/>
<path d="M78.8457 244.859H68.7994C63.1132 244.859 58.4128 240.434 58.0796 234.766L56.1167 201.312H91.5301L89.5672 234.766C89.234 240.434 84.5336 244.859 78.8474 244.859H78.8457Z" fill="#EDE0D5"/>
<path d="M78.8456 244.86H68.7993C81.7925 236.453 87.5851 219.926 91.5301 201.314L89.5672 234.768C89.2339 240.436 84.5336 244.861 78.8474 244.861L78.8456 244.86Z" fill="#DBCFC5"/>
<path d="M84.3799 201.314H91.5299L89.4397 229.444" stroke="#1F1406" stroke-width="4.43" stroke-linecap="round" stroke-linejoin="round"/>
</svg>
