<svg width="36" height="36" viewBox="0 0 36 36" fill="none" xmlns="http://www.w3.org/2000/svg">
<path d="M16.5 31.425C13.475 31.05 10.9688 29.7313 8.98125 27.4688C6.99375 25.2063 6 22.55 6 19.5C6 17.85 6.325 16.2688 6.975 14.7563C7.625 13.2438 8.55 11.925 9.75 10.8L11.8875 12.9375C10.9375 13.7875 10.2188 14.775 9.73125 15.9C9.24375 17.025 9 18.225 9 19.5C9 21.7 9.7 23.6438 11.1 25.3313C12.5 27.0188 14.3 28.05 16.5 28.425V31.425ZM19.5 31.425V28.425C21.675 28.025 23.4688 26.9875 24.8813 25.3125C26.2938 23.6375 27 21.7 27 19.5C27 17 26.125 14.875 24.375 13.125C22.625 11.375 20.5 10.5 18 10.5H17.8875L19.5375 12.15L17.4375 14.25L12.1875 9L17.4375 3.75L19.5375 5.85L17.8875 7.5H18C21.35 7.5 24.1875 8.6625 26.5125 10.9875C28.8375 13.3125 30 16.15 30 19.5C30 22.525 29.0063 25.1688 27.0188 27.4313C25.0313 29.6938 22.525 31.025 19.5 31.425Z" fill="white"/>
</svg>
