<svg width="16" height="16" viewBox="0 0 16 16" fill="none" xmlns="http://www.w3.org/2000/svg">
<g clip-path="url(#clip0_289_24273)">
<path d="M4.82667 5.83333C4.65333 5.51333 4.56667 5.14667 4.56667 4.72C4.56667 4.31333 4.65333 3.94667 4.83333 3.60667C5.00667 3.27333 5.25333 2.98667 5.57333 2.74667C5.89333 2.51333 6.27333 2.32667 6.70667 2.19333C7.14667 2.06667 7.63333 2 8.16 2C8.7 2 9.18667 2.07333 9.63333 2.22667C10.0733 2.37333 10.4533 2.58667 10.76 2.85333C11.0733 3.12 11.3133 3.44 11.48 3.80667C11.6467 4.17333 11.7333 4.57333 11.7333 5.01333H9.72667C9.72667 4.80667 9.69333 4.62 9.62667 4.44667C9.56667 4.26667 9.46667 4.12 9.33333 3.99333C9.2 3.86667 9.03333 3.77333 8.83333 3.7C8.63333 3.63333 8.39333 3.59333 8.12667 3.59333C7.86667 3.59333 7.63333 3.62 7.44 3.68C7.24667 3.74 7.08667 3.82 6.96 3.92C6.83333 4.02667 6.73333 4.14667 6.66667 4.28667C6.6 4.42667 6.56667 4.57333 6.56667 4.72667C6.56667 5.04667 6.73333 5.31333 7.06 5.53333C7.31333 5.7 7.57333 5.85333 8 6H4.92667C4.89333 5.94667 4.85333 5.88667 4.82667 5.83333ZM14 8V6.66667H2V8H8.41333C8.53333 8.04667 8.68 8.09333 8.78 8.13333C9.02667 8.24667 9.22 8.36 9.36 8.47333C9.5 8.58667 9.59333 8.71333 9.64667 8.85333C9.69333 8.98667 9.72 9.14 9.72 9.31333C9.72 9.46667 9.68667 9.61333 9.62667 9.75333C9.56667 9.88667 9.47333 10.0067 9.34667 10.1067C9.22 10.2067 9.06667 10.28 8.87333 10.34C8.68 10.3933 8.45333 10.4267 8.2 10.4267C7.91333 10.4267 7.64667 10.4 7.41333 10.34C7.18 10.28 6.97333 10.1867 6.80667 10.06C6.64 9.93333 6.50667 9.76667 6.41333 9.56C6.32 9.35333 6.24667 9.05333 6.24667 8.75333H4.26667C4.26667 9.12 4.32 9.50667 4.42667 9.80667C4.53333 10.1067 4.67333 10.3733 4.86 10.6133C5.04667 10.8467 5.26 11.0533 5.51333 11.2267C5.76 11.4 6.03333 11.5467 6.32667 11.66C6.62 11.7733 6.92667 11.86 7.24667 11.92C7.56667 11.9733 7.88667 12.0067 8.20667 12.0067C8.74 12.0067 9.22667 11.9467 9.66 11.82C10.0933 11.6933 10.4667 11.52 10.7733 11.2933C11.08 11.0667 11.32 10.78 11.4867 10.4467C11.6533 10.1133 11.74 9.73333 11.74 9.30667C11.74 8.90667 11.6733 8.54667 11.5333 8.23333C11.5 8.16 11.46 8.08 11.42 8.01333H14V8Z" fill="white"/>
</g>
<defs>
<clipPath id="clip0_289_24273">
<rect width="16" height="16" fill="white"/>
</clipPath>
</defs>
</svg>
