<svg width="13" height="11" viewBox="0 0 13 11" fill="none" xmlns="http://www.w3.org/2000/svg">
<path d="M1 4.33325C0.446667 4.33325 0 4.77992 0 5.33325C0 5.88659 0.446667 6.33325 1 6.33325C1.55333 6.33325 2 5.88659 2 5.33325C2 4.77992 1.55333 4.33325 1 4.33325ZM1 0.333252C0.446667 0.333252 0 0.779919 0 1.33325C0 1.88659 0.446667 2.33325 1 2.33325C1.55333 2.33325 2 1.88659 2 1.33325C2 0.779919 1.55333 0.333252 1 0.333252ZM1 8.33325C0.446667 8.33325 0 8.78659 0 9.33325C0 9.87992 0.453333 10.3333 1 10.3333C1.54667 10.3333 2 9.87992 2 9.33325C2 8.78659 1.55333 8.33325 1 8.33325ZM3 9.99992H12.3333V8.66659H3V9.99992ZM3 5.99992H12.3333V4.66659H3V5.99992ZM3 0.666585V1.99992H12.3333V0.666585H3Z" fill="white"/>
</svg>
